name ./resultDataOpenSim/trcMotMarkerGrf/sub06/grf-02-05.mot
datacolumns 19
datarows 30
range 0.96800000 1.08400000
endheader

                time	     ground_force_vx	     ground_force_vy	     ground_force_vz	     ground_force_px	     ground_force_py	     ground_force_pz	   l_ground_force_vx	   l_ground_force_vy	   l_ground_force_vz	   l_ground_force_px	   l_ground_force_py	   l_ground_force_pz	     ground_torque_x	     ground_torque_y	     ground_torque_z	   l_ground_torque_x	   l_ground_torque_y	   l_ground_torque_z	
          0.96800000	          0.00000000	          0.00000000	          0.00000000	          0.00000000	          0.00000000	          0.00000000	        101.64242998	        727.83960578	         39.44925605	          0.02618388	         -0.02500000	         -0.05147313	          0.00000000	          0.00000000	          0.00000000	          0.00000000	         -2.07109124	          0.00000000	
          0.97200000	          0.00000000	          0.00000000	          0.00000000	          0.00000000	          0.00000000	          0.00000000	        108.05944228	        748.88626775	         40.71807158	          0.02675682	         -0.02500000	         -0.05109317	          0.00000000	          0.00000000	          0.00000000	          0.00000000	         -2.13959663	          0.00000000	
          0.97600000	          0.00000000	          0.00000000	          0.00000000	          0.00000000	          0.00000000	          0.00000000	        114.79332356	        768.03773590	         41.34353782	          0.02738396	         -0.02500000	         -0.05063395	          0.00000000	          0.00000000	          0.00000000	          0.00000000	         -2.23574819	          0.00000000	
          0.98000000	          0.00000000	          0.00000000	          0.00000000	          0.00000000	          0.00000000	          0.00000000	        121.86312571	        784.86147416	         41.30606638	          0.02809923	         -0.02500000	         -0.05014309	          0.00000000	          0.00000000	          0.00000000	          0.00000000	         -2.35537985	          0.00000000	
          0.98400000	          0.00000000	          0.00000000	          0.00000000	          0.00000000	          0.00000000	          0.00000000	        129.27573226	        799.05731566	         40.65240083	          0.02891076	         -0.02500000	         -0.04965306	          0.00000000	          0.00000000	          0.00000000	          0.00000000	         -2.49176989	          0.00000000	
          0.98800000	          0.00000000	          0.00000000	          0.00000000	          0.00000000	          0.00000000	          0.00000000	        137.01876232	        810.47364711	         39.47911704	          0.02979038	         -0.02500000	         -0.04918096	          0.00000000	          0.00000000	          0.00000000	          0.00000000	         -2.63667219	          0.00000000	
          0.99200000	          0.00000000	          0.00000000	          0.00000000	          0.00000000	          0.00000000	          0.00000000	        145.03047100	        819.08412054	         37.91251361	          0.03069947	         -0.02500000	         -0.04873057	          0.00000000	          0.00000000	          0.00000000	          0.00000000	         -2.78148024	          0.00000000	
          0.99600000	          0.00000000	          0.00000000	          0.00000000	          0.00000000	          0.00000000	          0.00000000	        153.17712481	        824.92484687	         36.10620665	          0.03161790	         -0.02500000	         -0.04829360	          0.00000000	          0.00000000	          0.00000000	          0.00000000	         -2.91818336	          0.00000000	
          1.00000000	          0.00000000	          0.00000000	          0.00000000	          0.00000000	          0.00000000	          0.00000000	        161.27834084	        828.04636837	         34.23705390	          0.03254034	         -0.02500000	         -0.04786349	          0.00000000	          0.00000000	          0.00000000	          0.00000000	         -3.03988396	          0.00000000	
          1.00400000	          0.00000000	          0.00000000	          0.00000000	          0.00000000	          0.00000000	          0.00000000	        169.16319802	        828.50614976	         32.46911267	          0.03345542	         -0.02500000	         -0.04744280	          0.00000000	          0.00000000	          0.00000000	          0.00000000	         -3.14089683	          0.00000000	
          1.00800000	          0.00000000	          0.00000000	          0.00000000	          0.00000000	          0.00000000	          0.00000000	        176.71118887	        826.36369989	         30.90376510	          0.03435638	         -0.02500000	         -0.04703061	          0.00000000	          0.00000000	          0.00000000	          0.00000000	         -3.21665119	          0.00000000	
          1.01200000	          0.00000000	          0.00000000	          0.00000000	          0.00000000	          0.00000000	          0.00000000	        183.85399217	        821.65521787	         29.56322023	          0.03524825	         -0.02500000	         -0.04661940	          0.00000000	          0.00000000	          0.00000000	          0.00000000	         -3.26362084	          0.00000000	
          1.01600000	          0.00000000	          0.00000000	          0.00000000	          0.00000000	          0.00000000	          0.00000000	        190.54634580	        814.37109600	         28.41187228	          0.03613422	         -0.02500000	         -0.04620830	          0.00000000	          0.00000000	          0.00000000	          0.00000000	         -3.27937113	          0.00000000	
          1.02000000	          0.00000000	          0.00000000	          0.00000000	          0.00000000	          0.00000000	          0.00000000	        196.74105270	        804.44890077	         27.38138759	          0.03700639	         -0.02500000	         -0.04580684	          0.00000000	          0.00000000	          0.00000000	          0.00000000	         -3.26265885	          0.00000000	
          1.02400000	          0.00000000	          0.00000000	          0.00000000	          0.00000000	          0.00000000	          0.00000000	        202.38480052	        791.77011628	         26.38711413	          0.03786786	         -0.02500000	         -0.04542023	          0.00000000	          0.00000000	          0.00000000	          0.00000000	         -3.21347091	          0.00000000	
          1.02800000	          0.00000000	          0.00000000	          0.00000000	          0.00000000	          0.00000000	          0.00000000	        207.40966535	        776.17264938	         25.34572319	          0.03873661	         -0.02500000	         -0.04505073	          0.00000000	          0.00000000	          0.00000000	          0.00000000	         -3.13296461	          0.00000000	
          1.03200000	          0.00000000	          0.00000000	          0.00000000	          0.00000000	          0.00000000	          0.00000000	        211.70708292	        757.46422344	         24.19512725	          0.03962035	         -0.02500000	         -0.04470004	          0.00000000	          0.00000000	          0.00000000	          0.00000000	         -3.02336102	          0.00000000	
          1.03600000	          0.00000000	          0.00000000	          0.00000000	          0.00000000	          0.00000000	          0.00000000	        215.10108379	        735.39950368	         22.90081038	          0.04050723	         -0.02500000	         -0.04437098	          0.00000000	          0.00000000	          0.00000000	          0.00000000	         -2.88782979	          0.00000000	
          1.04000000	         -0.28784096	         11.15709346	          2.14308738	          0.64343990	          0.00000000	          0.06155192	        217.32704594	        709.65376002	         21.43529880	          0.04139565	         -0.02500000	         -0.04406116	          0.00000000	          0.41079628	          0.00000000	          0.00000000	         -2.73031160	          0.00000000	
          1.04400000	         -6.14805764	        128.44738165	          9.62221615	          0.64963183	          0.00000000	          0.05992877	        218.02637367	        679.82807700	         19.75460189	          0.04229380	         -0.02500000	         -0.04376472	          0.00000000	          0.33288993	          0.00000000	          0.00000000	         -2.55518409	          0.00000000	
          1.04800000	        -13.12996638	        235.14722443	         17.02321220	          0.65492270	          0.00000000	          0.05858976	        216.78386411	        645.48487632	         17.81186042	          0.04321942	         -0.02500000	         -0.04348260	          0.00000000	          0.21199970	          0.00000000	          0.00000000	         -2.36678910	          0.00000000	
          1.05200000	        -22.48018355	        322.40135238	         23.93209971	          0.65958994	          0.00000000	          0.05765968	        213.19271411	        606.24064276	         15.60154997	          0.04419941	         -0.02500000	         -0.04322039	          0.00000000	          0.02546865	          0.00000000	          0.00000000	         -2.16902851	          0.00000000	
          1.05600000	        -35.21768103	        386.80396229	         29.58441123	          0.66326631	          0.00000000	          0.05743164	        206.88455605	        561.93327219	         13.18338137	          0.04526733	         -0.02500000	         -0.04298446	          0.00000000	         -0.23008698	          0.00000000	          0.00000000	         -1.96528713	          0.00000000	
          1.06000000	        -51.44218307	        431.67015021	         33.13896802	          0.66613314	          0.00000000	          0.05791894	        197.51362625	        512.81940919	         10.65782331	          0.04644635	         -0.02500000	         -0.04278759	          0.00000000	         -0.53408865	          0.00000000	          0.00000000	         -1.75872194	          0.00000000	
          1.06400000	        -70.34297944	        464.44443738	         34.05855743	          0.66933327	          0.00000000	          0.05877702	        184.78776456	        459.69726056	          8.12346962	          0.04775701	         -0.02500000	         -0.04264285	          0.00000000	         -0.84425217	          0.00000000	          0.00000000	         -1.55261446	          0.00000000	
          1.06800000	        -90.76780702	        492.09481804	         32.26386608	          0.67389228	          0.00000000	          0.05969762	        168.61462635	        403.88272745	          5.66909539	          0.04927264	         -0.02500000	         -0.04253890	          0.00000000	         -1.10564038	          0.00000000	          0.00000000	         -1.35039467	          0.00000000	
          1.07200000	       -111.32981388	        518.50459263	         28.04576901	          0.67953460	          0.00000000	          0.06070626	        149.29086776	        347.10690031	          3.40096757	          0.05112190	         -0.02500000	         -0.04244151	          0.00000000	         -1.26421479	          0.00000000	          0.00000000	         -1.15532665	          0.00000000	
          1.07600000	       -130.24058115	        545.32447932	         21.94519179	          0.68495666	          0.00000000	          0.06195239	        127.61475363	        291.40815641	          1.44345015	          0.05341214	         -0.02500000	         -0.04233634	          0.00000000	         -1.28182599	          0.00000000	          0.00000000	         -0.97030787	          0.00000000	
          1.08000000	       -145.96800037	        573.89243732	         14.64360621	          0.68923846	          0.00000000	          0.06336871	        104.85711964	        238.93474479	         -0.10972326	          0.05616084	         -0.02500000	         -0.04223586	          0.00000000	         -1.14893694	          0.00000000	          0.00000000	         -0.79810238	          0.00000000	
          1.08400000	       -158.36126658	        605.50466365	          6.87374305	          0.69278513	          0.00000000	          0.06467196	         82.57324155	        191.56445576	         -1.23431410	          0.05923093	         -0.02500000	         -0.04212664	          0.00000000	         -0.89060162	          0.00000000	          0.00000000	         -0.64166136	          0.00000000	
